<svg width="20" height="20" viewBox="0 0 20 20" fill="none" xmlns="http://www.w3.org/2000/svg">
<path d="M16.7687 10.5434C16.9156 10.4027 17 10.2059 17 9.99962C17 9.79338 16.9156 9.59964 16.7687 9.45589L11.2687 4.20609C10.9687 3.9186 10.4937 3.9311 10.2094 4.23109C9.925 4.53108 9.93437 5.00606 10.2344 5.29042L14.3781 9.24965H3.75C3.33437 9.24965 3 9.58401 3 9.99962C3 10.4152 3.33437 10.7496 3.75 10.7496H14.3781L10.2312 14.7057C9.93125 14.9932 9.92188 15.465 10.2062 15.765C10.4906 16.065 10.9656 16.0744 11.2656 15.79L16.7656 10.5402L16.7687 10.5434Z" fill="#202020"/>
</svg>
