<svg xmlns="http://www.w3.org/2000/svg" width="20" height="20" viewBox="0 0 20 20" fill="none">
  <path d="M16.7688 10.5437C16.9156 10.4031 17 10.2062 17 9.99999C17 9.79374 16.9156 9.59999 16.7688 9.45624L11.2688 4.20624C10.9688 3.91874 10.4938 3.93124 10.2094 4.23124C9.925 4.53124 9.93437 5.00624 10.2344 5.29061L14.3781 9.24999H3.75C3.33437 9.24999 3 9.58436 3 9.99999C3 10.4156 3.33437 10.75 3.75 10.75H14.3781L10.2312 14.7062C9.93125 14.9937 9.92188 15.4656 10.2063 15.7656C10.4906 16.0656 10.9656 16.075 11.2656 15.7906L16.7656 10.5406L16.7688 10.5437Z" fill="#202020"/>
</svg>