<svg width="20" height="20" viewBox="0 0 20 20" fill="none" xmlns="http://www.w3.org/2000/svg">
<path d="M13.7437 10.6014C13.2312 10.3826 12.6375 10.5264 12.2844 10.9576L11.2469 12.2264C9.80937 11.392 8.60938 10.192 7.775 8.75448L9.04063 7.72011C9.47188 7.36698 9.61875 6.77323 9.39687 6.26073L7.89687 2.76073C7.6625 2.21073 7.07188 1.90448 6.4875 2.02948L2.9875 2.77948C2.4125 2.90136 2 3.41073 2 4.00136C2 11.2264 7.475 17.1764 14.5031 17.9232C14.8094 17.9545 15.1156 17.9795 15.4281 17.992H15.4312C15.6219 17.9982 15.8094 18.0045 16 18.0045C16.5906 18.0045 17.1 17.592 17.2219 17.017L17.9719 13.517C18.0969 12.9326 17.7906 12.342 17.2406 12.1076L13.7406 10.6076L13.7437 10.6014ZM15.7969 16.5014C9.05625 16.392 3.60938 10.9451 3.50312 4.20448L6.60313 3.53886L7.94688 6.67636L6.825 7.59511C6.25625 8.06073 6.10938 8.87011 6.47813 9.50761C7.44375 11.1732 8.83125 12.5607 10.4969 13.5264C11.1344 13.8951 11.9438 13.7482 12.4094 13.1795L13.3281 12.0576L16.4656 13.4014L15.7969 16.5014Z" fill="white"/>
</svg>
