<svg width="14" height="14" viewBox="0 0 14 14" fill="none" xmlns="http://www.w3.org/2000/svg">
<path d="M10.2275 11.0791L2.92251 3.77406C2.22001 4.65906 1.80001 5.78156 1.80001 7.00156C1.80001 9.87406 4.12751 12.2016 7.00001 12.2016C8.22001 12.2016 9.34251 11.7816 10.2275 11.0791ZM11.075 10.2316C11.78 9.34406 12.2 8.22156 12.2 7.00156C12.2 4.12906 9.87251 1.80156 7.00001 1.80156C5.78001 1.80156 4.65751 2.22156 3.77251 2.92406L11.0775 10.2291L11.075 10.2316ZM0.600006 7.00156C0.600006 5.30418 1.27429 3.67631 2.47452 2.47608C3.67476 1.27585 5.30262 0.601563 7.00001 0.601562C8.69739 0.601563 10.3253 1.27585 11.5255 2.47608C12.7257 3.67631 13.4 5.30418 13.4 7.00156C13.4 8.69895 12.7257 10.3268 11.5255 11.527C10.3253 12.7273 8.69739 13.4016 7.00001 13.4016C5.30262 13.4016 3.67476 12.7273 2.47452 11.527C1.27429 10.3268 0.600006 8.69895 0.600006 7.00156Z" fill="white"/>
</svg>
