<svg xmlns="http://www.w3.org/2000/svg" width="13" height="13" viewBox="0 0 13 13" fill="none">
  <path d="M9.6275 10.4775L2.3225 3.1725C1.62 4.0575 1.2 5.18 1.2 6.4C1.2 9.2725 3.5275 11.6 6.4 11.6C7.62 11.6 8.7425 11.18 9.6275 10.4775ZM10.475 9.63C11.18 8.7425 11.6 7.62 11.6 6.4C11.6 3.5275 9.2725 1.2 6.4 1.2C5.18 1.2 4.0575 1.62 3.1725 2.3225L10.4775 9.6275L10.475 9.63ZM0 6.4C0 4.70261 0.674284 3.07475 1.87452 1.87452C3.07475 0.674284 4.70261 0 6.4 0C8.09739 0 9.72525 0.674284 10.9255 1.87452C12.1257 3.07475 12.8 4.70261 12.8 6.4C12.8 8.09739 12.1257 9.72525 10.9255 10.9255C9.72525 12.1257 8.09739 12.8 6.4 12.8C4.70261 12.8 3.07475 12.1257 1.87452 10.9255C0.674284 9.72525 0 8.09739 0 6.4Z" fill="white"/>
</svg>