<svg xmlns="http://www.w3.org/2000/svg" width="30" height="30" viewBox="0 0 30 30" fill="none">
  <path d="M15.0043 9.60977C12.023 9.60977 9.61836 12.0145 9.61836 14.9957C9.61836 17.977 12.023 20.3816 15.0043 20.3816C17.9855 20.3816 20.3902 17.977 20.3902 14.9957C20.3902 12.0145 17.9855 9.60977 15.0043 9.60977ZM15.0043 18.4973C13.0777 18.4973 11.5027 16.927 11.5027 14.9957C11.5027 13.0645 13.073 11.4941 15.0043 11.4941C16.9355 11.4941 18.5059 13.0645 18.5059 14.9957C18.5059 16.927 16.9309 18.4973 15.0043 18.4973ZM21.8668 9.38945C21.8668 10.0879 21.3043 10.6457 20.6105 10.6457C19.9121 10.6457 19.3543 10.0832 19.3543 9.38945C19.3543 8.6957 19.9168 8.1332 20.6105 8.1332C21.3043 8.1332 21.8668 8.6957 21.8668 9.38945ZM25.434 10.6645C25.3543 8.98164 24.9699 7.49102 23.7371 6.26289C22.509 5.03477 21.0184 4.65039 19.3355 4.56602C17.6012 4.46758 12.4027 4.46758 10.6684 4.56602C8.99023 4.6457 7.49961 5.03008 6.2668 6.2582C5.03398 7.48633 4.6543 8.97695 4.56992 10.6598C4.47148 12.3941 4.47148 17.5926 4.56992 19.327C4.64961 21.0098 5.03398 22.5004 6.2668 23.7285C7.49961 24.9566 8.98555 25.341 10.6684 25.4254C12.4027 25.5238 17.6012 25.5238 19.3355 25.4254C21.0184 25.3457 22.509 24.9613 23.7371 23.7285C24.9652 22.5004 25.3496 21.0098 25.434 19.327C25.5324 17.5926 25.5324 12.3988 25.434 10.6645ZM23.1934 21.1879C22.8277 22.1066 22.1199 22.8145 21.1965 23.1848C19.8137 23.7332 16.5324 23.6066 15.0043 23.6066C13.4762 23.6066 10.1902 23.7285 8.81211 23.1848C7.89336 22.8191 7.18555 22.1113 6.81523 21.1879C6.2668 19.8051 6.39336 16.5238 6.39336 14.9957C6.39336 13.4676 6.27148 10.1816 6.81523 8.80352C7.18086 7.88477 7.88867 7.17695 8.81211 6.80664C10.1949 6.2582 13.4762 6.38477 15.0043 6.38477C16.5324 6.38477 19.8184 6.26289 21.1965 6.80664C22.1152 7.17227 22.823 7.88008 23.1934 8.80352C23.7418 10.1863 23.6152 13.4676 23.6152 14.9957C23.6152 16.5238 23.7418 19.8098 23.1934 21.1879Z" fill="white"/>
</svg>