<svg xmlns="http://www.w3.org/2000/svg" width="20" height="20" viewBox="0 0 20 20" fill="none">
  <path d="M11.5 2.75134C11.5 3.16697 11.8344 3.50134 12.25 3.50134H15.4406L8.46875 10.4701C8.175 10.7638 8.175 11.2388 8.46875 11.5295C8.7625 11.8201 9.2375 11.8232 9.52812 11.5295L16.4969 4.56072L16.5 7.75134C16.5 8.16697 16.8344 8.50134 17.25 8.50134C17.6656 8.50134 18 8.16697 18 7.75134V2.75134C18 2.33572 17.6656 2.00134 17.25 2.00134H12.25C11.8344 2.00134 11.5 2.33572 11.5 2.75134ZM4.25 3.00134C3.00625 3.00134 2 4.00759 2 5.25134V15.7513C2 16.9951 3.00625 18.0013 4.25 18.0013H14.75C15.9937 18.0013 17 16.9951 17 15.7513V11.7513C17 11.3357 16.6656 11.0013 16.25 11.0013C15.8344 11.0013 15.5 11.3357 15.5 11.7513V15.7513C15.5 16.167 15.1656 16.5013 14.75 16.5013H4.25C3.83438 16.5013 3.5 16.167 3.5 15.7513V5.25134C3.5 4.83572 3.83438 4.50134 4.25 4.50134H8.25C8.66563 4.50134 9 4.16697 9 3.75134C9 3.33572 8.66563 3.00134 8.25 3.00134H4.25Z" fill="#202020"/>
</svg>