<svg width="12" height="16" viewBox="0 0 12 16" fill="none" xmlns="http://www.w3.org/2000/svg">
<path d="M10.5 6.00146C10.5 3.51709 8.48438 1.50146 6 1.50146C3.51562 1.50146 1.5 3.51709 1.5 6.00146C1.5 6.38896 1.64062 6.98896 1.97812 7.78896C2.30625 8.56396 2.77188 9.42021 3.30625 10.2858C4.19688 11.7296 5.22813 13.1233 6 14.1171C6.775 13.1233 7.80625 11.7296 8.69375 10.2858C9.22813 9.42021 9.69375 8.56396 10.0219 7.78896C10.3594 6.98896 10.5 6.38896 10.5 6.00146ZM12 6.00146C12 8.73271 8.34375 13.5952 6.74062 15.6015C6.35625 16.0796 5.64375 16.0796 5.25938 15.6015C3.65625 13.5952 0 8.73271 0 6.00146C0 2.68896 2.6875 0.00146484 6 0.00146484C9.3125 0.00146484 12 2.68896 12 6.00146ZM7 6.00146C7 5.73625 6.89464 5.48189 6.70711 5.29436C6.51957 5.10682 6.26522 5.00146 6 5.00146C5.73478 5.00146 5.48043 5.10682 5.29289 5.29436C5.10536 5.48189 5 5.73625 5 6.00146C5 6.26668 5.10536 6.52104 5.29289 6.70857C5.48043 6.89611 5.73478 7.00146 6 7.00146C6.26522 7.00146 6.51957 6.89611 6.70711 6.70857C6.89464 6.52104 7 6.26668 7 6.00146ZM3.5 6.00146C3.5 5.33842 3.76339 4.70254 4.23223 4.2337C4.70107 3.76486 5.33696 3.50146 6 3.50146C6.66304 3.50146 7.29893 3.76486 7.76777 4.2337C8.23661 4.70254 8.5 5.33842 8.5 6.00146C8.5 6.66451 8.23661 7.30039 7.76777 7.76923C7.29893 8.23807 6.66304 8.50146 6 8.50146C5.33696 8.50146 4.70107 8.23807 4.23223 7.76923C3.76339 7.30039 3.5 6.66451 3.5 6.00146Z" fill="white"/>
</svg>
