<svg width="16" height="12" viewBox="0 0 16 12" fill="none" xmlns="http://www.w3.org/2000/svg">
<path d="M2 1.50146C1.725 1.50146 1.5 1.72646 1.5 2.00146V2.69209L6.89062 7.11709C7.5375 7.64834 8.46562 7.64834 9.1125 7.11709L14.5 2.69209V2.00146C14.5 1.72646 14.275 1.50146 14 1.50146H2ZM1.5 4.63271V10.0015C1.5 10.2765 1.725 10.5015 2 10.5015H14C14.275 10.5015 14.5 10.2765 14.5 10.0015V4.63271L10.0625 8.27646C8.8625 9.26084 7.13438 9.26084 5.9375 8.27646L1.5 4.63271ZM0 2.00146C0 0.89834 0.896875 0.00146484 2 0.00146484H14C15.1031 0.00146484 16 0.89834 16 2.00146V10.0015C16 11.1046 15.1031 12.0015 14 12.0015H2C0.896875 12.0015 0 11.1046 0 10.0015V2.00146Z" fill="white"/>
</svg>
