<svg xmlns="http://www.w3.org/2000/svg" width="20" height="20" viewBox="0 0 20 20" fill="none">
  <path d="M10.4842 2.17935C10.2029 1.94185 9.79353 1.94185 9.51228 2.17935L1.26228 9.17935C0.946657 9.4481 0.909157 9.91997 1.17478 10.2356C1.44041 10.5512 1.91541 10.5887 2.23103 10.3231L2.99978 9.6731V15.5012C2.99978 16.8825 4.11853 18.0012 5.49978 18.0012H14.4998C15.881 18.0012 16.9998 16.8825 16.9998 15.5012V9.6731L17.7654 10.3231C18.081 10.5918 18.556 10.5512 18.8217 10.2356C19.0873 9.91997 19.0498 9.44497 18.7342 9.17935L10.4842 2.17935ZM4.49978 15.5012V8.40122L9.99978 3.7356L15.4998 8.40122V15.5012C15.4998 16.0543 15.0529 16.5012 14.4998 16.5012H12.9998V11.7512C12.9998 11.0606 12.4404 10.5012 11.7498 10.5012H8.24978C7.55916 10.5012 6.99978 11.0606 6.99978 11.7512V16.5012H5.49978C4.94666 16.5012 4.49978 16.0543 4.49978 15.5012ZM8.49978 16.5012V12.0012H11.4998V16.5012H8.49978Z" fill="#202020"/>
</svg>