<svg width="16" height="16" viewBox="0 0 16 16" fill="none" xmlns="http://www.w3.org/2000/svg">
<path d="M11.7437 8.59928C11.2312 8.38053 10.6375 8.52428 10.2844 8.95553L9.24687 10.2243C7.80937 9.38991 6.60938 8.18991 5.775 6.75241L7.04063 5.71803C7.47188 5.36491 7.61875 4.77116 7.39687 4.25866L5.89687 0.758657C5.6625 0.208657 5.07188 -0.0975927 4.4875 0.0274073L0.9875 0.777407C0.4125 0.899282 0 1.40866 0 1.99928C0 9.22428 5.475 15.1743 12.5031 15.9212C12.8094 15.9524 13.1156 15.9774 13.4281 15.9899H13.4312C13.6219 15.9962 13.8094 16.0024 14 16.0024C14.5906 16.0024 15.1 15.5899 15.2219 15.0149L15.9719 11.5149C16.0969 10.9305 15.7906 10.3399 15.2406 10.1055L11.7406 8.60553L11.7437 8.59928ZM13.7969 14.4993C7.05625 14.3899 1.60938 8.94303 1.50312 2.20241L4.60313 1.53678L5.94688 4.67428L4.825 5.59303C4.25625 6.05866 4.10938 6.86803 4.47813 7.50553C5.44375 9.17116 6.83125 10.5587 8.49687 11.5243C9.13437 11.893 9.94375 11.7462 10.4094 11.1774L11.3281 10.0555L14.4656 11.3993L13.7969 14.4993Z" fill="#202020"/>
</svg>
