<svg width="20" height="20" viewBox="0 0 20 20" fill="none" xmlns="http://www.w3.org/2000/svg">
<path d="M13.501 8.49984C13.501 7.17396 12.9743 5.90239 12.0368 4.96486C11.0992 4.02732 9.82767 3.50062 8.50179 3.50062C7.17592 3.50062 5.90435 4.02732 4.96681 4.96486C4.02928 5.90239 3.50257 7.17396 3.50257 8.49984C3.50257 9.82571 4.02928 11.0973 4.96681 12.0348C5.90435 12.9724 7.17592 13.4991 8.50179 13.4991C9.82767 13.4991 11.0992 12.9724 12.0368 12.0348C12.9743 11.0973 13.501 9.82571 13.501 8.49984ZM12.5355 13.5959C11.4295 14.4739 10.0266 14.9988 8.50179 14.9988C4.91173 14.9988 2.00281 12.0899 2.00281 8.49984C2.00281 4.90978 4.91173 2.00085 8.50179 2.00085C12.0919 2.00085 15.0008 4.90978 15.0008 8.49984C15.0008 10.0246 14.4759 11.4275 13.5979 12.5336L17.7816 16.7173C18.0753 17.011 18.0753 17.4859 17.7816 17.7765C17.4879 18.0671 17.013 18.0702 16.7224 17.7765L12.5355 13.5959Z" fill="#202020"/>
</svg>
